<?xml version="1.0" standalone="no"?><!DOCTYPE svg PUBLIC "-//W3C//DTD SVG 1.1//EN" "http://www.w3.org/Graphics/SVG/1.1/DTD/svg11.dtd"><svg t="1545395297378" class="icon" style="" viewBox="0 0 1024 1024" version="1.1" xmlns="http://www.w3.org/2000/svg" p-id="2457" xmlns:xlink="http://www.w3.org/1999/xlink" width="200" height="200"><defs><style type="text/css"></style></defs><path d="M810.666667 810.666667v-298.666667a42.666667 42.666667 0 0 1 85.333333 0v341.333333a42.666667 42.666667 0 0 1-42.666667 42.666667H170.666667a42.666667 42.666667 0 0 1-42.666667-42.666667V170.666667a42.666667 42.666667 0 0 1 42.666667-42.666667h512a42.666667 42.666667 0 0 1 42.666666 42.666667v512a42.666667 42.666667 0 0 1-85.333333 0V213.333333H213.333333v597.333334h597.333334zM341.333333 384a42.666667 42.666667 0 1 1 0-85.333333h170.666667a42.666667 42.666667 0 0 1 0 85.333333H341.333333z m0 128a42.666667 42.666667 0 0 1 0-85.333333h170.666667a42.666667 42.666667 0 0 1 0 85.333333H341.333333z m0 128a42.666667 42.666667 0 0 1 0-85.333333h85.333334a42.666667 42.666667 0 0 1 0 85.333333H341.333333z" p-id="2458"></path></svg>